<svg width="223" height="81" viewBox="0 0 223 81" fill="none" xmlns="http://www.w3.org/2000/svg">
<path d="M138.7 12.52V67.81H127.49V62.17C126.32 64.15 124.63 65.76 122.58 66.78C120.38 67.88 117.89 68.46 115.4 68.46C112.32 68.53 109.25 67.65 106.68 65.9C104.04 64.14 101.99 61.73 100.67 58.87C99.21 55.57 98.47 52.06 98.55 48.47C98.48 44.88 99.21 41.37 100.67 38.14C101.99 35.36 104.04 32.94 106.6 31.26C109.24 29.58 112.31 28.77 115.39 28.84C117.81 28.84 120.22 29.35 122.35 30.45C124.4 31.48 126.09 33.01 127.26 34.92V16.24L138.69 12.5L138.7 12.52ZM125.22 56.9C126.68 55 127.49 52.21 127.49 48.62C127.49 45.03 126.76 42.32 125.22 40.42C123.68 38.52 121.26 37.42 118.78 37.49C116.29 37.34 113.87 38.44 112.26 40.35C110.72 42.25 109.92 44.96 109.92 48.48C109.92 52 110.73 54.85 112.26 56.83C113.8 58.81 116.29 59.91 118.78 59.83C121.56 59.83 123.76 58.8 125.22 56.9V56.9ZM178.76 31.19C181.4 32.87 183.45 35.29 184.69 38.07C186.15 41.29 186.89 44.81 186.81 48.4C186.88 51.99 186.15 55.58 184.69 58.8C183.37 61.66 181.32 64.07 178.68 65.83C176.12 67.51 173.04 68.39 169.97 68.32C167.48 68.39 164.99 67.81 162.79 66.64C160.74 65.61 159.05 64 157.96 62.03V67.74H146.68V16.25L158.03 12.51V35.07C159.13 33.09 160.81 31.48 162.86 30.46C165.06 29.29 167.47 28.7 169.96 28.78C173.04 28.71 176.11 29.59 178.75 31.2L178.76 31.19ZM173.19 56.82C174.73 54.84 175.46 52.06 175.46 48.4C175.46 44.74 174.73 42.17 173.19 40.27C171.65 38.37 169.53 37.41 166.75 37.41C164.26 37.26 161.84 38.36 160.23 40.34C158.69 42.32 157.96 45.03 157.96 48.54C157.96 52.05 158.69 54.91 160.23 56.82C161.77 58.8 164.18 59.9 166.75 59.75C169.24 59.9 171.66 58.8 173.19 56.82V56.82ZM202.49 38.22H212.16V29.72H202.49V17.12L191.14 20.78V53.22C191.14 58.05 192.39 61.79 194.88 64.43C197.37 67.07 200.96 68.38 205.65 68.38C207.85 68.45 210.04 68.09 212.17 67.35V58.56C211 58.85 209.68 59.07 208.43 59.07C206.82 59.14 205.28 58.63 204.11 57.61C203.08 56.66 202.5 55.12 202.5 53V38.21L202.49 38.22Z" fill="white"/>
<path d="M77.55 3.37001C79.45 5.20001 80.7 7.62 80.99 10.25C80.99 11.35 80.7 12.08 80.04 13.47C79.38 14.86 71.25 28.92 68.83 32.8C67.44 35.07 66.71 37.78 66.71 40.42C66.71 43.06 67.44 45.77 68.83 48.04C71.25 51.92 79.38 66.06 80.04 67.45C80.7 68.84 80.99 69.5 80.99 70.6C80.7 73.24 79.53 75.65 77.62 77.41C75.79 79.31 73.37 80.56 70.81 80.78C69.71 80.78 68.98 80.49 67.66 79.83C66.34 79.17 51.99 71.26 48.11 68.84C47.82 68.69 47.52 68.47 47.16 68.33L27.97 56.98C28.41 60.64 30.02 64.16 32.66 66.72C33.17 67.23 33.69 67.67 34.27 68.11C33.83 68.33 33.32 68.55 32.88 68.84C29 71.26 14.86 79.39 13.47 80.05C12.08 80.71 11.42 81 10.25 81C7.61 80.71 5.2 79.54 3.44 77.63C1.54 75.8 0.29 73.38 0 70.75C0.07 69.65 0.37 68.55 0.95 67.6C1.61 66.21 9.74 52.07 12.16 48.19C13.55 45.92 14.28 43.28 14.28 40.57C14.28 37.86 13.55 35.22 12.16 32.95C9.74 28.92 1.54 14.79 0.95 13.4C0.36 12.45 0.07 11.35 0 10.25C0.29 7.61 1.46 5.20001 3.37 3.37001C5.2 1.47001 7.62 0.29 10.25 0C11.35 0.07 12.45 0.369997 13.47 0.949997C14.64 1.46 24.97 7.47 30.46 10.69L31.71 11.42C32.15 11.71 32.52 11.93 32.81 12.08L33.4 12.45L52.95 24.02C52.51 19.63 50.24 15.6 46.72 12.89C47.16 12.67 47.67 12.45 48.11 12.16C51.99 9.74 66.13 1.54 67.52 0.949997C68.47 0.359997 69.57 0.07 70.74 0C73.3 0.29 75.72 1.46001 77.55 3.37001V3.37001ZM41.52 45.7L45.69 41.53C46.28 40.94 46.28 40.07 45.69 39.48L41.52 35.31C40.93 34.72 40.06 34.72 39.47 35.31L35.3 39.48C34.71 40.07 34.71 40.94 35.3 41.53L39.47 45.7C39.98 46.21 40.93 46.21 41.52 45.7ZM77.55 3.37001C79.45 5.20001 80.7 7.62 80.99 10.25C80.99 11.35 80.7 12.08 80.04 13.47C79.38 14.86 71.25 28.92 68.83 32.8C67.44 35.07 66.71 37.78 66.71 40.42C66.71 43.06 67.44 45.77 68.83 48.04C71.25 51.92 79.38 66.06 80.04 67.45C80.7 68.84 80.99 69.5 80.99 70.6C80.7 73.24 79.53 75.65 77.62 77.41C75.79 79.31 73.37 80.56 70.81 80.78C69.71 80.78 68.98 80.49 67.66 79.83C66.34 79.17 51.99 71.26 48.11 68.84C47.82 68.69 47.52 68.47 47.16 68.33L27.97 56.98C28.41 60.64 30.02 64.16 32.66 66.72C33.17 67.23 33.69 67.67 34.27 68.11C33.83 68.33 33.32 68.55 32.88 68.84C29 71.26 14.86 79.39 13.47 80.05C12.08 80.71 11.42 81 10.25 81C7.61 80.71 5.2 79.54 3.44 77.63C1.54 75.8 0.29 73.38 0 70.75C0.07 69.65 0.37 68.55 0.95 67.6C1.61 66.21 9.74 52.07 12.16 48.19C13.55 45.92 14.28 43.28 14.28 40.57C14.28 37.86 13.55 35.22 12.16 32.95C9.74 28.92 1.54 14.79 0.95 13.4C0.36 12.45 0.07 11.35 0 10.25C0.29 7.61 1.46 5.20001 3.37 3.37001C5.2 1.47001 7.62 0.29 10.25 0C11.35 0.07 12.45 0.369997 13.47 0.949997C14.64 1.46 24.97 7.47 30.46 10.69L31.71 11.42C32.15 11.71 32.52 11.93 32.81 12.08L33.4 12.45L52.95 24.02C52.51 19.63 50.24 15.6 46.72 12.89C47.16 12.67 47.67 12.45 48.11 12.16C51.99 9.74 66.13 1.54 67.52 0.949997C68.47 0.359997 69.57 0.07 70.74 0C73.3 0.29 75.72 1.46001 77.55 3.37001V3.37001ZM41.52 45.7L45.69 41.53C46.28 40.94 46.28 40.07 45.69 39.48L41.52 35.31C40.93 34.72 40.06 34.72 39.47 35.31L35.3 39.48C34.71 40.07 34.71 40.94 35.3 41.53L39.47 45.7C39.98 46.21 40.93 46.21 41.52 45.7Z" fill="#FF694A"/>
<path d="M222.15 64.3599L220.94 67.7399H220.5L219.29 64.3599V67.7399H218.52V63.1299H219.48L220.72 66.5599L221.96 63.1299H222.92V67.7399H222.15V64.3599Z" fill="white"/>
<path d="M217.84 63.8199H216.57V67.7399H215.79V63.8199H214.52V63.1299H217.84V63.8199Z" fill="white"/>
</svg>
