<svg width="223" height="81" viewBox="0 0 223 81" fill="none" xmlns="http://www.w3.org/2000/svg">
<path d="M138.71 12.52V67.81H127.5V62.17C126.33 64.15 124.64 65.76 122.59 66.78C120.39 67.88 117.9 68.46 115.41 68.46C112.33 68.53 109.26 67.65 106.69 65.9C104.05 64.14 102 61.73 100.68 58.87C99.22 55.57 98.48 52.06 98.56 48.47C98.49 44.88 99.22 41.37 100.68 38.14C102 35.36 104.05 32.94 106.61 31.26C109.25 29.58 112.32 28.77 115.4 28.84C117.82 28.84 120.23 29.35 122.36 30.45C124.41 31.48 126.1 33.01 127.27 34.92V16.26L138.7 12.52H138.71ZM125.23 56.9C126.69 55 127.5 52.21 127.5 48.62C127.5 45.03 126.77 42.32 125.23 40.42C123.69 38.52 121.27 37.42 118.79 37.49C116.3 37.34 113.88 38.44 112.27 40.35C110.73 42.25 109.93 44.96 109.93 48.48C109.93 52 110.74 54.85 112.27 56.83C113.81 58.81 116.3 59.91 118.79 59.83C121.57 59.83 123.77 58.8 125.23 56.9ZM178.77 31.19C181.41 32.87 183.46 35.29 184.7 38.07C186.16 41.29 186.9 44.81 186.82 48.4C186.89 51.99 186.16 55.58 184.7 58.8C183.38 61.66 181.33 64.07 178.69 65.83C176.13 67.51 173.05 68.39 169.98 68.32C167.49 68.39 165 67.81 162.8 66.64C160.75 65.61 159.06 64 157.97 62.03V67.74H146.69V16.26L158.04 12.52V35.08C159.14 33.1 160.82 31.49 162.87 30.47C165.07 29.3 167.48 28.71 169.97 28.79C173.05 28.72 176.12 29.6 178.76 31.21L178.77 31.19ZM173.2 56.82C174.74 54.84 175.47 52.06 175.47 48.4C175.47 44.74 174.74 42.17 173.2 40.27C171.66 38.37 169.54 37.41 166.76 37.41C164.27 37.26 161.85 38.36 160.24 40.34C158.7 42.32 157.97 45.03 157.97 48.54C157.97 52.05 158.7 54.91 160.24 56.82C161.78 58.8 164.19 59.9 166.76 59.75C169.25 59.9 171.67 58.8 173.2 56.82ZM202.5 38.22H212.17V29.72H202.5V17.12L191.15 20.78V53.24C191.15 58.07 192.4 61.81 194.89 64.45C197.38 67.09 200.97 68.4 205.66 68.4C207.86 68.47 210.05 68.11 212.18 67.37V58.58C211.01 58.87 209.69 59.09 208.44 59.09C206.83 59.16 205.29 58.65 204.12 57.63C203.09 56.68 202.51 55.14 202.51 53.02V38.23L202.5 38.22Z" fill="#262A38"/>
<path d="M77.56 3.37C79.46 5.2 80.71 7.62 81 10.25C81 11.35 80.71 12.08 80.05 13.47C79.39 14.86 71.26 28.92 68.84 32.8C67.45 35.07 66.72 37.78 66.72 40.42C66.72 43.06 67.45 45.77 68.84 48.04C71.26 51.92 79.39 66.06 80.05 67.45C80.71 68.84 81 69.5 81 70.6C80.71 73.24 79.54 75.65 77.63 77.41C75.8 79.31 73.38 80.56 70.82 80.78C69.72 80.78 68.99 80.49 67.67 79.83C66.35 79.17 52 71.26 48.12 68.84C47.83 68.69 47.53 68.47 47.17 68.33L27.98 56.98C28.42 60.64 30.03 64.16 32.67 66.72C33.18 67.23 33.7 67.67 34.28 68.11C33.84 68.33 33.33 68.55 32.89 68.84C29.01 71.26 14.87 79.39 13.48 80.05C12.09 80.71 11.43 81 10.26 81C7.62 80.71 5.21 79.54 3.45 77.63C1.55 75.8 0.3 73.38 0.01 70.75C0.08 69.65 0.38 68.55 0.96 67.6C1.62 66.21 9.75 52.07 12.17 48.19C13.56 45.92 14.29 43.28 14.29 40.57C14.29 37.86 13.56 35.22 12.17 32.95C9.74 28.93 1.54 14.79 0.95 13.4C0.36 12.45 0.07 11.35 0 10.25C0.29 7.62 1.46 5.2 3.37 3.37C5.2 1.46 7.62 0.29 10.25 0C11.35 0.07 12.45 0.37 13.47 0.95C14.64 1.46 24.97 7.47 30.46 10.69L31.71 11.42C32.15 11.71 32.52 11.93 32.81 12.08L33.4 12.45L52.95 24.02C52.51 19.63 50.24 15.6 46.72 12.89C47.16 12.67 47.67 12.45 48.11 12.16C51.99 9.74 66.13 1.54 67.52 0.95C68.47 0.36 69.57 0.07 70.74 0C73.3 0.29 75.72 1.46 77.55 3.37H77.56ZM41.53 45.7L45.7 41.53C46.29 40.94 46.29 40.07 45.7 39.48L41.53 35.31C40.94 34.72 40.07 34.72 39.48 35.31L35.31 39.48C34.72 40.07 34.72 40.94 35.31 41.53L39.48 45.7C39.99 46.21 40.94 46.21 41.53 45.7ZM77.56 3.37C79.46 5.2 80.71 7.62 81 10.25C81 11.35 80.71 12.08 80.05 13.47C79.39 14.86 71.26 28.92 68.84 32.8C67.45 35.07 66.72 37.78 66.72 40.42C66.72 43.06 67.45 45.77 68.84 48.04C71.26 51.92 79.39 66.06 80.05 67.45C80.71 68.84 81 69.5 81 70.6C80.71 73.24 79.54 75.65 77.63 77.41C75.8 79.31 73.38 80.56 70.82 80.78C69.72 80.78 68.99 80.49 67.67 79.83C66.35 79.17 52 71.26 48.12 68.84C47.83 68.69 47.53 68.47 47.17 68.33L27.98 56.98C28.42 60.64 30.03 64.16 32.67 66.72C33.18 67.23 33.7 67.67 34.28 68.11C33.84 68.33 33.33 68.55 32.89 68.84C29.01 71.26 14.87 79.39 13.48 80.05C12.09 80.71 11.43 81 10.26 81C7.62 80.71 5.21 79.54 3.45 77.63C1.55 75.8 0.3 73.38 0.01 70.75C0.08 69.65 0.38 68.55 0.96 67.6C1.62 66.21 9.75 52.07 12.17 48.19C13.56 45.92 14.29 43.28 14.29 40.57C14.29 37.86 13.56 35.22 12.17 32.95C9.74 28.93 1.54 14.79 0.95 13.4C0.36 12.45 0.07 11.35 0 10.25C0.29 7.62 1.46 5.2 3.37 3.37C5.2 1.46 7.62 0.29 10.25 0C11.35 0.07 12.45 0.37 13.47 0.95C14.64 1.46 24.97 7.47 30.46 10.69L31.71 11.42C32.15 11.71 32.52 11.93 32.81 12.08L33.4 12.45L52.95 24.02C52.51 19.63 50.24 15.6 46.72 12.89C47.16 12.67 47.67 12.45 48.11 12.16C51.99 9.74 66.13 1.54 67.52 0.95C68.47 0.36 69.57 0.07 70.74 0C73.3 0.29 75.72 1.46 77.55 3.37H77.56ZM41.53 45.7L45.7 41.53C46.29 40.94 46.29 40.07 45.7 39.48L41.53 35.31C40.94 34.72 40.07 34.72 39.48 35.31L35.31 39.48C34.72 40.07 34.72 40.94 35.31 41.53L39.48 45.7C39.99 46.21 40.94 46.21 41.53 45.7Z" fill="#FF694A"/>
<path d="M222.16 64.3599L220.95 67.7399H220.51L219.3 64.3599V67.7399H218.53V63.1299H219.49L220.73 66.5599L221.97 63.1299H222.93V67.7399H222.16V64.3599Z" fill="#262A38"/>
<path d="M217.85 63.8199H216.58V67.7399H215.8V63.8199H214.53V63.1299H217.85V63.8199Z" fill="#262A38"/>
</svg>
