<svg xmlns="http://www.w3.org/2000/svg" viewBox="0 0 135.54 62.44"><defs><style>.cls-1{fill:#fff;}.cls-2{fill:#dd00a1;}.cls-3{fill:#f9d8d2;}.cls-4{fill:#10110e;}.cls-5{fill:#e5e5e5;}.cls-6{fill:#8accce;opacity:0.2;}.cls-7{fill:#515151;}</style></defs><g id="Layer_2" data-name="Layer 2"><g id="Layer_3" data-name="Layer 3"><path class="cls-1" d="M14.24,55.36c.92-.61-1.49-.38-1.69-.79a15.24,15.24,0,0,1-2.86-.51C8,53.62,3.9,50.87,3.47,48.25s0-7.65,1.83-10.61A17.2,17.2,0,0,1,9.69,33s-3.57-8.49-3.88-14.9S6,.21,10.2,0s3.57,10.48,2.86,17.43a90,90,0,0,0-.21,13.89,19.33,19.33,0,0,1,5.51-.92,21.12,21.12,0,0,1,4.9.46S24.58,21,29,14.9s9-12.46,12-10.67-.81,8.19-3.46,11.52-7.25,8.33-8.78,11a46.59,46.59,0,0,0-2.65,5.51,15,15,0,0,1,6.4,6.32c2.07,4.28,2.27,9.59,1.15,11.83a8.07,8.07,0,0,1-5.61,4c-1.33.06-6.91,1.45-6.91,1.45Z"/><path class="cls-2" d="M24,30.94s3.33-8.7,6.32-13.6,7-8.59,8.26-7.84-2.57,5.33-5.92,9.82a111.72,111.72,0,0,0-7.44,12.37Z"/><path class="cls-2" d="M10.64,32.44l.95-.75s-.13-8.7,0-14S12,5.78,10.23,5.85,7.24,11,7.92,18.23A87.47,87.47,0,0,0,10.64,32.44Z"/><circle class="cls-3" cx="7.65" cy="49.17" r="1.94"/><circle class="cls-3" cx="30.57" cy="49.17" r="1.94"/><path class="cls-4" d="M22.33,49a.18.18,0,0,0-.26.07s-.57,1-1.41,1.06a2.09,2.09,0,0,1-1.5-.7V48c.54-.29,1.41-1.19,1.41-1.5a1.4,1.4,0,0,0-1.5-1.09c-1,0-1.7.65-1.7,1.19s1.1,1.23,1.41,1.44v1.45a1.79,1.79,0,0,1-1.3.7c-.8,0-1.4-1.08-1.4-1.09a.19.19,0,0,0-.26-.08.18.18,0,0,0-.07.25c0,.06.71,1.29,1.73,1.29a2.11,2.11,0,0,0,1.5-.72,2.47,2.47,0,0,0,1.59.73h.12a2.49,2.49,0,0,0,1.71-1.25A.18.18,0,0,0,22.33,49Z"/><path class="cls-5" d="M9.69,33S6.91,26,6.38,22.29s-1-9.78-.3-13.85A47.9,47.9,0,0,1,7.31,2.89S6,12.38,6.49,16.53,9.69,33,9.69,33Z"/><path class="cls-5" d="M23.26,30.86s2-10.59,4.91-14.76,6.52-9.2,8.35-10.48l1.82-1.28S31,12,28.17,18.36,23.26,30.86,23.26,30.86Z"/><path class="cls-4" d="M11.6,42.86a1.52,1.52,0,1,0,1.52,1.51A1.52,1.52,0,0,0,11.6,42.86ZM12,44.27a.42.42,0,1,1,.42-.42A.42.42,0,0,1,12,44.27Z"/><path class="cls-4" d="M26.55,42.86a1.52,1.52,0,1,0,1.51,1.51A1.52,1.52,0,0,0,26.55,42.86ZM27,44.27a.42.42,0,1,1,.41-.42A.41.41,0,0,1,27,44.27Z"/><ellipse class="cls-6" cx="19.36" cy="44.95" rx="14.1" ry="10.16"/><path class="cls-1" d="M36.43,39.3V32.58a2.46,2.46,0,0,0,1.91-2.29,2.65,2.65,0,0,0-5.27,0A2.47,2.47,0,0,0,35,32.58v6.55H34.8c-2-6.94-7.91-11.25-15.63-11.25S5.51,32.15,3.55,39.13H2.88A2.75,2.75,0,0,0,0,41.71v5.17a2.75,2.75,0,0,0,2.88,2.59h.91a13,13,0,0,0,3.59,5.08L6.09,55.72A.79.79,0,0,0,6,56.84c2.93,3.53,7.72,5.6,13.13,5.6s10.21-2,13.14-5.6a.79.79,0,0,0-.1-1.12l-1.29-1.17a13.18,13.18,0,0,0,3.59-5.08h1a2.74,2.74,0,0,0,2.87-2.59V41.71A2.59,2.59,0,0,0,36.43,39.3Zm-17.26-4c7.14,0,12.94,4.7,12.94,10.47,0,6.25-6.51,9.05-12.94,9.05S6.23,52,6.23,45.72C6.23,40,12,35.25,19.17,35.25Z"/><path class="cls-7" d="M36.91,45.16H35c0-.3,0-.6,0-.95a19.32,19.32,0,0,0-.39-3.79h.82a1.35,1.35,0,0,1,1.44,1.29Z"/><path class="cls-7" d="M35.47,48.18h-1A15.29,15.29,0,0,0,34.89,46h2v.86A1.35,1.35,0,0,1,35.47,48.18Z"/><path class="cls-7" d="M19.17,61.1c-4.79,0-9.06-1.72-11.74-4.78l1.34-1.21a17.82,17.82,0,0,0,10.4,3,17.79,17.79,0,0,0,10.4-3l1.35,1.21C28.23,59.38,24,61.1,19.17,61.1Z"/><path class="cls-7" d="M2.88,40.42h.86a19.64,19.64,0,0,0-.38,3.79,7.87,7.87,0,0,0,0,.95H1.49V41.71A1.27,1.27,0,0,1,2.88,40.42Z"/><path d="M19.17,34.39a17.32,17.32,0,0,0-4.79.69V29.86a17.12,17.12,0,0,1,4.79-.64,17.14,17.14,0,0,1,4.8.64v5.26A16,16,0,0,0,19.17,34.39Z"/><path class="cls-7" d="M13.42,30.16v5.26c-4.79,1.77-8.15,5.73-8.15,10.3,0,5.9,5.61,9.91,13.9,9.91s13.9-4,13.9-9.91c0-4.57-3.35-8.53-8.15-10.3V30.16c5.61,2,9.11,7.2,9.11,14.1,0,7.75-5.94,13-14.86,13S4.31,52,4.31,44.21C4.31,37.36,7.81,32.19,13.42,30.16Z"/><path class="cls-7" d="M1.44,46h2a16.85,16.85,0,0,0,.43,2.16h-1a1.35,1.35,0,0,1-1.44-1.3Z"/><ellipse class="cls-7" cx="35.71" cy="30.29" rx="1.2" ry="1.08"/><path class="cls-1" d="M65.07,35.55H59.25v-5.3a1.4,1.4,0,0,0-1.4-1.4H57.8a1.4,1.4,0,0,0-1.4,1.4v5.3H54.7a1.36,1.36,0,0,0-1.36,1.37h0a1.36,1.36,0,0,0,1.36,1.36h1.7V51A6.51,6.51,0,0,0,58,55.57a5.77,5.77,0,0,0,4.45,1.7,8.11,8.11,0,0,0,3.4-.73,1,1,0,0,0,.54-.89v-.86a1,1,0,0,0-1.45-.89,5.53,5.53,0,0,1-2.49.59A2.93,2.93,0,0,1,60,53.64a4.19,4.19,0,0,1-.79-2.76V38.29h5.82A1.35,1.35,0,0,0,66.42,37V36.9A1.36,1.36,0,0,0,65.07,35.55Z"/><path class="cls-1" d="M79.62,35.09a8.23,8.23,0,0,0-3.34.67,9.16,9.16,0,0,0-2.6,1.71,10.85,10.85,0,0,0-1,1.12V37a1.42,1.42,0,0,0-1.41-1.42h0A1.42,1.42,0,0,0,69.8,37V55.51a1.41,1.41,0,0,0,1.41,1.41h0a1.41,1.41,0,0,0,1.41-1.41V45.89a8.41,8.41,0,0,1,.49-2.66,9.61,9.61,0,0,1,1.4-2.65,8.06,8.06,0,0,1,2.17-2,5.07,5.07,0,0,1,2.73-.74h.19a1,1,0,0,0,1-1v-.77A1,1,0,0,0,79.62,35.09Z"/><path class="cls-1" d="M85.44,35.55h0A1.43,1.43,0,0,0,84,37V55.53a1.39,1.39,0,0,0,1.39,1.39h.08a1.39,1.39,0,0,0,1.39-1.39V37A1.43,1.43,0,0,0,85.44,35.55Z"/><path class="cls-1" d="M107.63,37.87a7.84,7.84,0,0,0-2.89-2.06,9.82,9.82,0,0,0-3.87-.72,8.79,8.79,0,0,0-3.46.64,9.18,9.18,0,0,0-2.58,1.61,9.78,9.78,0,0,0-.72.72V37a1.41,1.41,0,0,0-1.41-1.41h0A1.41,1.41,0,0,0,91.25,37V55.53a1.4,1.4,0,0,0,1.4,1.39h.06a1.4,1.4,0,0,0,1.4-1.39V45.19a7.76,7.76,0,0,1,.52-2.88A7.61,7.61,0,0,1,96.08,40a6.55,6.55,0,0,1,2.11-1.55,6.15,6.15,0,0,1,2.58-.55,7.07,7.07,0,0,1,2.8.52,5.52,5.52,0,0,1,2,1.4A6.05,6.05,0,0,1,106.71,42a10.34,10.34,0,0,1,.42,3v10.5a1.38,1.38,0,0,0,1.38,1.38h.1A1.37,1.37,0,0,0,110,55.54V45a12.33,12.33,0,0,0-.59-4A8.87,8.87,0,0,0,107.63,37.87Z"/><path class="cls-1" d="M134.76,41.94a10.63,10.63,0,0,0-2.27-3.55A11.5,11.5,0,0,0,119.92,36a10.74,10.74,0,0,0-5.73,6,11.71,11.71,0,0,0-.78,4.29,11.53,11.53,0,0,0,.78,4.24,10.75,10.75,0,0,0,2.27,3.53,11,11,0,0,0,8,3.3,11.36,11.36,0,0,0,4.55-.89,10.65,10.65,0,0,0,5.74-6,11.81,11.81,0,0,0,.78-4.33A11.61,11.61,0,0,0,134.76,41.94ZM124.51,54.61a8.31,8.31,0,0,1-3.33-.65,8.08,8.08,0,0,1-4.32-4.45,9.31,9.31,0,0,1,0-6.55,8,8,0,0,1,1.67-2.66,7.73,7.73,0,0,1,2.58-1.78,8.16,8.16,0,0,1,3.34-.66,8.27,8.27,0,0,1,3.32.66A7.93,7.93,0,0,1,132.08,43a8.74,8.74,0,0,1,.61,3.31,9.05,9.05,0,0,1-.59,3.25,8,8,0,0,1-1.67,2.65A8.12,8.12,0,0,1,127.85,54,8.33,8.33,0,0,1,124.51,54.61Z"/><circle class="cls-1" cx="85.46" cy="31.01" r="1.62"/></g></g></svg>
